PathFileType	4	(X/Y/Z)	E:\3-PhD\Data\MocapData\ElaboratedData\009\pre\dynamicElaborations\RunA3\RunA3.trc
DataRate	CameraRate	NumFrames	NumMarkers	Units	OrigDataRate	DataStartFrame
200	200	4	54	mm	200	570
Frame#	Time	FHD			LBHD			RBHD			C7			T10			CLAV			LSHO			LUUPA			LMUPA			LDUPA			LLEP			LMEP			LRAD			LUL			LRFIN			RSHO			RUPA1			RMUPA			RDUPA			RLEP			RMEP			RRAD			RUL			RUFIN			RASI			USACR			LSACR			RSACR			LTHI1			LTHI2			LTHI3			LTHI4			LTIB1			LTIB2			LTIB3			LTIB4			LLMAL			LHEE			LMT1			LMT2			RTHI			RTHI2			RTHI3			RTHI4			RLFC			RTIB1			RTIB2			RTIB3			RTIB4			RLMAL			RHEE			RMT1			RMT2			RMT5		
		X1	Y1	Z1	X2	Y2	Z2	X3	Y3	Z3	X4	Y4	Z4	X5	Y5	Z5	X6	Y6	Z6	X7	Y7	Z7	X8	Y8	Z8	X9	Y9	Z9	X10	Y10	Z10	X11	Y11	Z11	X12	Y12	Z12	X13	Y13	Z13	X14	Y14	Z14	X15	Y15	Z15	X16	Y16	Z16	X17	Y17	Z17	X18	Y18	Z18	X19	Y19	Z19	X20	Y20	Z20	X21	Y21	Z21	X22	Y22	Z22	X23	Y23	Z23	X24	Y24	Z24	X25	Y25	Z25	X26	Y26	Z26	X27	Y27	Z27	X28	Y28	Z28	X29	Y29	Z29	X30	Y30	Z30	X31	Y31	Z31	X32	Y32	Z32	X33	Y33	Z33	X34	Y34	Z34	X35	Y35	Z35	X36	Y36	Z36	X37	Y37	Z37	X38	Y38	Z38	X39	Y39	Z39	X40	Y40	Z40	X41	Y41	Z41	X42	Y42	Z42	X43	Y43	Z43	X44	Y44	Z44	X45	Y45	Z45	X46	Y46	Z46	X47	Y47	Z47	X48	Y48	Z48	X49	Y49	Z49	X50	Y50	Z50	X51	Y51	Z51	X52	Y52	Z52	X53	Y53	Z53	X54	Y54	Z54	

576	2.875000	-727.115160	1413.897430	582.452330	-873.696303	1432.602125	451.354073	-874.583235	1405.500625	578.265930	-945.100758	1311.063174	515.600736	-1162.913340	1031.735233	520.974086	-868.199930	1174.289534	492.264621	-910.206545	1264.643189	373.386147	-990.471707	1134.610235	245.828887	-950.660382	1111.105296	234.133628	-993.584538	1078.042290	206.568049	-989.039973	967.049137	157.779121	-1006.773782	922.220446	216.184030	-743.077315	955.150045	244.319356	-732.643294	900.251319	195.986978	-684.574350	990.631947	214.290675	-862.574341	1223.901895	660.965333	-981.493857	1142.056676	777.303143	-989.551943	1096.853627	770.789262	-1033.177301	1110.821121	808.074840	-1141.859553	1037.277994	853.485521	-1189.037947	1052.544204	798.993437	-1130.529569	778.789279	794.156345	-1186.810084	780.086500	838.088742	-1105.192324	718.170318	841.761362	-1054.472846	802.894258	616.992035	-1202.148142	932.444701	500.972796	-1202.166298	907.776802	466.189892	-1213.231052	895.109033	522.415969	-931.244583	712.279329	272.229430	-855.239239	674.520427	273.428081	-827.697565	691.370042	309.706628	-840.933804	617.373771	255.159158	-703.400698	360.432982	220.288866	-748.086988	341.970058	147.218467	-716.192758	329.162460	175.241307	-712.689388	245.101641	166.740619	-756.285087	114.346634	79.256920	-838.095249	65.804867	81.942060	-628.393104	51.624902	157.169489	-613.205665	57.080861	112.496908	-1016.428986	572.101306	654.216667	-958.672618	546.661658	669.324738	-929.994470	565.765128	674.186048	-929.814246	470.674250	644.273041	-865.223535	399.692539	618.555121	-962.290903	326.815675	458.762171	-1069.272716	351.575301	460.829021	-1043.140123	322.736349	435.966384	-1063.121303	317.451662	383.025102	-1172.549414	333.235973	366.008238	-1227.057866	391.787687	304.096652	-1088.707670	212.513537	272.188732	-1103.571814	199.041087	307.569606	-1165.729326	203.536560	343.574389	
577	2.880000	-703.392121	1406.785838	587.261214	-847.462963	1425.440025	453.508989	-850.720529	1398.640043	580.464723	-920.523770	1305.031247	517.255841	-1140.871923	1027.748467	524.247250	-844.533720	1166.966209	495.601934	-884.757191	1256.716923	375.033184	-957.962455	1122.350172	247.339398	-916.888937	1100.459559	237.369664	-957.244217	1064.938136	209.220856	-946.375770	953.793422	162.954944	-964.189083	909.038248	221.324841	-704.663271	954.945156	259.939392	-689.581995	900.396076	212.332396	-646.598438	993.034797	232.049094	-838.406390	1216.653364	664.293154	-958.550324	1133.469306	779.429065	-968.526801	1088.679973	770.312380	-1010.684491	1102.080027	809.718345	-1121.101011	1033.470062	855.036672	-1167.933710	1050.453769	801.037340	-1126.570807	773.775706	800.743819	-1182.324834	779.045183	845.500338	-1104.101765	712.335679	848.555345	-1031.814752	797.820360	619.538521	-1180.887936	927.498052	504.944084	-1181.078303	903.051199	470.044049	-1191.616166	890.036613	526.307946	-912.139026	707.023394	273.129143	-836.419221	668.837767	272.952472	-807.602217	686.436118	307.761354	-822.832874	611.303513	255.690064	-689.209793	353.144847	219.413567	-736.018938	337.327674	147.082679	-704.401774	322.665486	174.568638	-705.287101	238.665581	165.469115	-756.056717	110.964828	77.657170	-838.608282	62.533783	79.487399	-629.276074	51.504584	155.873616	-613.702683	56.487814	111.194786	-991.642693	570.599511	659.643957	-933.566456	546.681968	676.160871	-905.415169	566.530814	681.407071	-902.144770	471.279183	651.487699	-835.564428	402.269582	627.455021	-927.652719	328.267792	464.960206	-1035.383253	350.622536	465.789137	-1007.873030	322.351331	441.160225	-1026.368421	316.608478	387.629360	-1135.885458	330.219655	368.497453	-1190.442803	387.437224	305.361388	-1047.008514	211.750107	276.561743	-1062.450709	197.860262	311.588777	-1125.426861	200.773769	346.292195	
578	2.885000	-680.003976	1399.916399	592.451234	-821.443781	1418.506548	456.029006	-827.133442	1392.041512	582.957713	-896.290073	1299.114818	519.182055	-1118.975988	1023.994542	528.003690	-821.068969	1159.776368	499.322099	-859.020600	1248.759313	376.914045	-924.527245	1110.293680	249.294195	-882.372783	1089.957844	241.304731	-919.958614	1052.159483	212.595374	-903.040309	941.018685	169.200825	-920.966213	896.422967	227.523883	-666.711389	954.935130	276.113200	-647.144801	900.866532	229.499058	-609.305975	995.508115	250.274735	-814.535558	1209.641805	668.013528	-936.090297	1125.105628	781.701512	-947.950120	1080.849668	770.013835	-988.624643	1093.599106	811.555410	-1100.763645	1029.737529	856.493447	-1147.177099	1048.372013	802.931747	-1122.202384	770.105714	807.169426	-1177.155759	779.100249	852.558967	-1102.502842	708.140328	855.275235	-1009.020126	792.941410	622.053156	-1159.773893	922.721709	509.509698	-1160.243576	898.532872	474.495944	-1170.101300	885.119160	530.791999	-893.620991	701.526316	273.807998	-818.257735	662.786859	272.148980	-788.048374	681.109726	305.251462	-805.498477	604.828489	255.950680	-675.741019	346.391984	218.296749	-724.493303	333.089036	146.737828	-693.053088	316.788982	173.435499	-698.328447	232.937299	164.194098	-755.866048	108.291885	76.274619	-839.255708	60.017216	77.494179	-630.256169	51.691911	154.753020	-614.370606	56.236463	110.090218	-966.890618	569.438870	665.211669	-908.526649	547.072135	682.996960	-880.959609	567.686374	688.663614	-874.569463	472.390068	658.773239	-805.950391	405.415332	636.368144	-892.615646	329.600475	471.361511	-1001.012134	349.097066	470.700069	-972.108730	321.531564	446.572413	-988.894012	315.021183	392.425060	-1098.494968	326.075776	371.030890	-1153.143020	381.602275	306.490779	-1004.151139	210.120428	281.473268	-1020.178979	195.824567	316.128625	-1083.933836	196.991383	349.467425	
579	2.890000	-656.930885	1393.343319	597.996050	-795.659675	1411.869441	458.946955	-803.806392	1385.764514	585.778006	-872.368114	1293.387115	521.430102	-1097.216064	1020.491727	532.251035	-797.800764	1152.782332	503.433891	-832.995317	1240.864556	379.133984	-890.235645	1098.665472	251.859775	-847.191316	1079.803525	246.083400	-881.855311	1039.950666	216.815366	-859.232523	928.907017	176.567473	-877.288956	884.534453	234.832933	-629.291219	955.229179	292.767115	-605.436929	901.752724	247.391780	-572.748563	998.147189	268.863052	-790.957126	1202.935469	672.127788	-914.133179	1117.243752	784.197106	-927.761071	1073.596846	770.125313	-967.042439	1085.703709	813.657947	-1080.848030	1026.235692	857.938966	-1126.769287	1046.445874	804.745776	-1117.263619	767.730668	813.357079	-1171.242081	780.179418	859.189212	-1100.249911	705.482674	861.846806	-986.106957	788.332494	624.591687	-1138.776492	918.196279	514.659832	-1139.631611	894.283069	479.549549	-1148.673222	880.452128	535.874196	-875.647084	695.934376	274.386382	-800.693127	656.553719	271.211013	-769.050441	675.540571	302.446183	-788.813693	598.169478	256.061553	-662.986212	340.203713	216.964160	-713.502567	329.275548	146.207849	-682.148070	311.545435	171.907208	-691.745504	227.935465	162.930814	-755.602184	106.301694	75.161932	-839.907399	58.263973	76.036449	-631.164603	52.040238	153.811460	-615.052640	56.192867	109.173896	-942.212916	568.654223	670.923275	-883.590023	547.861821	689.813528	-856.667942	569.259341	695.928476	-847.140449	474.039545	666.125749	-776.441116	409.145429	645.264417	-857.241000	330.817781	478.042217	-966.172516	347.053638	475.608891	-935.881778	320.312143	452.216803	-950.742313	312.751949	397.467200	-1060.395984	320.887213	373.699789	-1115.130368	374.348102	307.557877	-960.221714	207.726791	287.024791	-976.830124	193.040768	321.294096	-1041.302925	192.304479	353.207924	
